Coordinates
version=1
nRows=49
nColumns=12
inDegrees=yes

Units are S.I. units (second, meters, Newtons, ...)
Angles are in degrees

endheader
time	SC_y	SC_z	SC_x	AC_y	AC_z	AC_x	GH_y	GH_z	GH_yy	EL_x	PS_y
       0.0               -18.7          10.33          29.26          56.89         -6.112          18.67         -17.72         -6.482         -66.34          123.0          92.08
   0.01391              -18.71          10.33          29.26          56.89         -6.114          18.67         -17.71         -6.471          -66.3          123.0          92.09
   0.02781              -18.71          10.33          29.26          56.89         -6.116          18.67          -17.7         -6.459         -66.27          123.0          92.09
   0.04172              -18.72          10.33          29.25          56.89         -6.118          18.67         -17.69         -6.447         -66.23          123.0           92.1
   0.05562              -18.72          10.33          29.25          56.88         -6.121          18.67         -17.67         -6.434         -66.19          123.0          92.11
   0.06953              -18.73          10.34          29.25          56.88         -6.123          18.67         -17.66          -6.42         -66.15          123.0          92.12
   0.08344              -18.73          10.34          29.24          56.88         -6.126          18.67         -17.65         -6.405         -66.11          122.9          92.13
   0.09734              -18.74          10.34          29.24          56.87         -6.128          18.67         -17.63         -6.389         -66.06          122.9          92.14
    0.1112              -18.75          10.34          29.23          56.87         -6.132          18.67         -17.61         -6.371         -66.01          122.9          92.15
    0.1252              -18.76          10.34          29.23          56.87         -6.135          18.67          -17.6         -6.353         -65.95          122.9          92.16
    0.1391              -18.76          10.34          29.23          56.86         -6.138          18.67         -17.58         -6.333         -65.89          122.9          92.17
     0.153              -18.77          10.35          29.22          56.86         -6.142          18.67         -17.56         -6.312         -65.83          122.9          92.18
    0.1669              -18.78          10.35          29.22          56.85         -6.146          18.67         -17.54         -6.289         -65.76          122.9           92.2
    0.1808              -18.79          10.35          29.21          56.85          -6.15          18.67         -17.51         -6.264         -65.69          122.9          92.21
    0.1947              -18.81          10.35           29.2          56.84         -6.155          18.67         -17.49         -6.237         -65.61          122.9          92.23
    0.2086              -18.82          10.36           29.2          56.83          -6.16          18.67         -17.46         -6.208         -65.52          122.9          92.25
    0.2225              -18.83          10.36          29.19          56.83         -6.166          18.67         -17.43         -6.176         -65.43          122.9          92.27
    0.2364              -18.85          10.36          29.18          56.82         -6.172          18.67          -17.4         -6.142         -65.33          122.9          92.29
    0.2503              -18.86          10.37          29.17          56.81         -6.179          18.67         -17.36         -6.104         -65.22          122.9          92.31
    0.2642              -18.88          10.37          29.16           56.8         -6.186          18.67         -17.32         -6.063         -65.09          122.9          92.34
    0.2781               -18.9          10.37          29.15          56.79         -6.194          18.67         -17.28         -6.018         -64.96          122.9          92.37
     0.292              -18.92          10.38          29.14          56.78         -6.203          18.67         -17.23         -5.968         -64.81          122.8           92.4
    0.3059              -18.94          10.38          29.12          56.77         -6.213          18.67         -17.18         -5.913         -64.65          122.8          92.43
    0.3198              -18.97          10.39          29.11          56.75         -6.223          18.67         -17.12         -5.852         -64.47          122.8          92.47
    0.3337               -19.0           10.4          29.09          56.74         -6.235          18.67         -17.06         -5.784         -64.27          122.8          92.51
    0.3476              -19.03           10.4          29.08          56.72         -6.249          18.67         -16.99         -5.709         -64.04          122.8          92.56
    0.3616              -19.07          10.41          29.05           56.7         -6.264          18.67         -16.91         -5.624         -63.79          122.8          92.61
    0.3755              -19.11          10.42          29.03          56.68         -6.281          18.67         -16.82         -5.529         -63.51          122.7          92.67
    0.3894              -19.16          10.43          29.01          56.66           -6.3          18.67         -16.72         -5.421         -63.19          122.7          92.73
    0.4033              -19.21          10.44          28.98          56.63         -6.321          18.67          -16.6         -5.299         -62.82          122.7          92.81
    0.4172              -19.27          10.46          28.94           56.6         -6.346          18.67         -16.47         -5.159         -62.41          122.7           92.9
    0.4311              -19.34          10.47           28.9          56.56         -6.374          18.67         -16.32         -4.999         -61.94          122.6          92.99
     0.445              -19.42          10.49          28.86          56.52         -6.407          18.67         -16.14         -4.815         -61.39          122.6          93.11
    0.4589              -19.51          10.51          28.81          56.47         -6.445          18.67         -15.94           -4.6         -60.75          122.5          93.24
    0.4728              -19.62          10.53          28.75          56.41         -6.489          18.67          -15.7         -4.348          -60.0          122.5           93.4
    0.4867              -19.74          10.56          28.68          56.35         -6.542          18.67         -15.42         -4.052         -59.12          122.4          93.58
    0.5006               -19.9          10.59          28.59          56.27         -6.604          18.67         -15.09           -3.7         -58.08          122.3           93.8
    0.5145              -20.08          10.63          28.49          56.17         -6.679          18.67         -14.69         -3.278         -56.83          122.2          94.06
    0.5284               -20.3          10.68          28.37          56.06         -6.769          18.67          -14.2         -2.768         -55.31          122.1          94.37
    0.5423              -20.56          10.74          28.22          55.92         -6.879          18.66         -13.61         -2.144         -53.46          121.9          94.76
    0.5562               -20.9          10.82          28.03          55.74         -7.015          18.66         -12.89         -1.374         -51.17          121.7          95.23
    0.5701              -21.31          10.91           27.8          55.53         -7.185          18.66         -11.98        -0.4144         -48.32          121.5          95.82
     0.584              -21.83          11.02          27.51          55.25         -7.399          18.66         -10.83         0.7947         -44.73          121.2          96.57
     0.598              -22.49          11.17          27.14          54.91         -7.671          18.66         -9.379          2.332         -40.17          120.9          97.52
    0.6119              -23.33          11.36          26.67          54.46         -8.018          18.65         -7.518          4.299         -34.33          120.4          98.73
    0.6258              -24.42           11.6          26.06          53.89         -8.465          18.65         -5.129          6.824         -26.84          119.8          100.3
    0.6397               -25.8           11.9          25.28          53.17         -9.035          18.64         -2.078          10.05         -17.26          119.0          102.3
    0.6536              -27.55          12.29          24.31          52.25         -9.752          18.64          1.759           14.1         -5.223          118.1          104.8
    0.6675              -29.67          12.76          23.12          51.14         -10.63          18.63          6.435          19.05          9.447          116.9          107.8
